<mxfile host="app.diagrams.net" modified="2023-04-10T11:49:05.586Z" agent="5.0 (Macintosh; Intel Mac OS X 10_15_7) AppleWebKit/537.36 (KHTML, like Gecko) Chrome/110.0.0.0 Safari/537.36" etag="zuuyX8brJjLzqBRSTMNQ" version="21.0.10" type="github">
  <diagram name="Page-1" id="rwwSvc9GXQbOLDpHlsPt">
    <mxGraphModel dx="1505" dy="881" grid="1" gridSize="10" guides="1" tooltips="1" connect="1" arrows="1" fold="1" page="1" pageScale="1" pageWidth="827" pageHeight="1169" math="0" shadow="0">
      <root>
        <mxCell id="0" />
        <mxCell id="1" parent="0" />
        <mxCell id="qoSIT-62pR1oJo8wJ7Q4-1" value="" style="rounded=1;whiteSpace=wrap;html=1;align=left;" vertex="1" parent="1">
          <mxGeometry x="90" y="340" width="330" height="380" as="geometry" />
        </mxCell>
        <mxCell id="qoSIT-62pR1oJo8wJ7Q4-2" value="&lt;font style=&quot;font-size: 24px;&quot;&gt;天穹DB&lt;/font&gt;" style="text;html=1;strokeColor=none;fillColor=none;align=center;verticalAlign=middle;whiteSpace=wrap;rounded=0;" vertex="1" parent="1">
          <mxGeometry x="190" y="340" width="120" height="50" as="geometry" />
        </mxCell>
        <mxCell id="qoSIT-62pR1oJo8wJ7Q4-3" value="hybris" style="rounded=1;whiteSpace=wrap;html=1;" vertex="1" parent="1">
          <mxGeometry x="260" y="430" width="120" height="60" as="geometry" />
        </mxCell>
        <mxCell id="qoSIT-62pR1oJo8wJ7Q4-4" value="supersql" style="rounded=1;whiteSpace=wrap;html=1;" vertex="1" parent="1">
          <mxGeometry x="110" y="430" width="120" height="60" as="geometry" />
        </mxCell>
        <mxCell id="qoSIT-62pR1oJo8wJ7Q4-5" value="hdfs" style="rounded=1;whiteSpace=wrap;html=1;" vertex="1" parent="1">
          <mxGeometry x="90" y="770" width="740" height="60" as="geometry" />
        </mxCell>
        <mxCell id="qoSIT-62pR1oJo8wJ7Q4-6" value="oms" style="rounded=1;whiteSpace=wrap;html=1;" vertex="1" parent="1">
          <mxGeometry x="690" y="460" width="120" height="60" as="geometry" />
        </mxCell>
        <mxCell id="qoSIT-62pR1oJo8wJ7Q4-7" value="supersql" style="rounded=1;whiteSpace=wrap;html=1;" vertex="1" parent="1">
          <mxGeometry x="450" y="400" width="360" height="30" as="geometry" />
        </mxCell>
        <mxCell id="qoSIT-62pR1oJo8wJ7Q4-8" value="ranger" style="rounded=1;whiteSpace=wrap;html=1;" vertex="1" parent="1">
          <mxGeometry x="260" y="510" width="120" height="60" as="geometry" />
        </mxCell>
        <mxCell id="qoSIT-62pR1oJo8wJ7Q4-9" value="虚拟集群管理" style="rounded=1;whiteSpace=wrap;html=1;" vertex="1" parent="1">
          <mxGeometry x="110" y="510" width="120" height="60" as="geometry" />
        </mxCell>
        <mxCell id="qoSIT-62pR1oJo8wJ7Q4-10" value="presto" style="rounded=1;whiteSpace=wrap;html=1;" vertex="1" parent="1">
          <mxGeometry x="460" y="460" width="120" height="60" as="geometry" />
        </mxCell>
        <mxCell id="qoSIT-62pR1oJo8wJ7Q4-11" value="spark" style="rounded=1;whiteSpace=wrap;html=1;" vertex="1" parent="1">
          <mxGeometry x="570" y="530" width="120" height="60" as="geometry" />
        </mxCell>
      </root>
    </mxGraphModel>
  </diagram>
</mxfile>
